<svg xmlns="http://www.w3.org/2000/svg" version="1.1" xmlns:xlink="http://www.w3.org/1999/xlink" xmlns:svgjs="http://svgjs.dev/svgjs" width="1440" height="560" preserveAspectRatio="none" viewBox="0 0 1440 560"><g mask="url(&quot;#SvgjsMask1033&quot;)" fill="none"><rect width="1440" height="560" x="0" y="0" fill="rgba(255, 255, 255, 1)"></rect><path d="M52.22 367.62L175.2 438.62L175.2 580.62L52.22 651.62L-70.76 580.62L-70.76 438.62zM298.18 367.62L421.16 438.62L421.16 580.62L298.18 651.62L175.2 580.62L175.2 438.62zM544.14 -58.38L667.12 12.62L667.12 154.62L544.14 225.62L421.16 154.62L421.16 12.62zM667.12 154.62L790.09 225.62L790.09 367.62L667.12 438.62L544.14 367.62L544.14 225.62zM790.09 -58.38L913.07 12.62L913.07 154.62L790.09 225.62L667.12 154.62L667.12 12.62zM790.09 367.62L913.07 438.62L913.07 580.62L790.09 651.62L667.12 580.62L667.12 438.62zM1404.99 580.62L1527.97 651.62L1527.97 793.62L1404.99 864.62L1282.01 793.62L1282.01 651.62z" stroke="rgba(53, 50, 153, 1)" stroke-width="2"></path><path d="M38.02 367.62 a14.2 14.2 0 1 0 28.4 0 a14.2 14.2 0 1 0 -28.4 0zM161 438.62 a14.2 14.2 0 1 0 28.4 0 a14.2 14.2 0 1 0 -28.4 0zM161 580.62 a14.2 14.2 0 1 0 28.4 0 a14.2 14.2 0 1 0 -28.4 0zM38.02 651.62 a14.2 14.2 0 1 0 28.4 0 a14.2 14.2 0 1 0 -28.4 0zM-84.96 580.62 a14.2 14.2 0 1 0 28.4 0 a14.2 14.2 0 1 0 -28.4 0zM-84.96 438.62 a14.2 14.2 0 1 0 28.4 0 a14.2 14.2 0 1 0 -28.4 0zM283.98 367.62 a14.2 14.2 0 1 0 28.4 0 a14.2 14.2 0 1 0 -28.4 0zM406.96 438.62 a14.2 14.2 0 1 0 28.4 0 a14.2 14.2 0 1 0 -28.4 0zM406.96 580.62 a14.2 14.2 0 1 0 28.4 0 a14.2 14.2 0 1 0 -28.4 0zM283.98 651.62 a14.2 14.2 0 1 0 28.4 0 a14.2 14.2 0 1 0 -28.4 0zM529.94 -58.38 a14.2 14.2 0 1 0 28.4 0 a14.2 14.2 0 1 0 -28.4 0zM652.92 12.62 a14.2 14.2 0 1 0 28.4 0 a14.2 14.2 0 1 0 -28.4 0zM652.92 154.62 a14.2 14.2 0 1 0 28.4 0 a14.2 14.2 0 1 0 -28.4 0zM529.94 225.62 a14.2 14.2 0 1 0 28.4 0 a14.2 14.2 0 1 0 -28.4 0zM406.96 154.62 a14.2 14.2 0 1 0 28.4 0 a14.2 14.2 0 1 0 -28.4 0zM406.96 12.62 a14.2 14.2 0 1 0 28.4 0 a14.2 14.2 0 1 0 -28.4 0zM775.89 225.62 a14.2 14.2 0 1 0 28.4 0 a14.2 14.2 0 1 0 -28.4 0zM775.89 367.62 a14.2 14.2 0 1 0 28.4 0 a14.2 14.2 0 1 0 -28.4 0zM652.92 438.62 a14.2 14.2 0 1 0 28.4 0 a14.2 14.2 0 1 0 -28.4 0zM529.94 367.62 a14.2 14.2 0 1 0 28.4 0 a14.2 14.2 0 1 0 -28.4 0zM775.89 -58.38 a14.2 14.2 0 1 0 28.4 0 a14.2 14.2 0 1 0 -28.4 0zM898.87 12.62 a14.2 14.2 0 1 0 28.4 0 a14.2 14.2 0 1 0 -28.4 0zM898.87 154.62 a14.2 14.2 0 1 0 28.4 0 a14.2 14.2 0 1 0 -28.4 0zM898.87 438.62 a14.2 14.2 0 1 0 28.4 0 a14.2 14.2 0 1 0 -28.4 0zM898.87 580.62 a14.2 14.2 0 1 0 28.4 0 a14.2 14.2 0 1 0 -28.4 0zM775.89 651.62 a14.2 14.2 0 1 0 28.4 0 a14.2 14.2 0 1 0 -28.4 0zM652.92 580.62 a14.2 14.2 0 1 0 28.4 0 a14.2 14.2 0 1 0 -28.4 0zM1390.79 580.62 a14.2 14.2 0 1 0 28.4 0 a14.2 14.2 0 1 0 -28.4 0zM1513.77 651.62 a14.2 14.2 0 1 0 28.4 0 a14.2 14.2 0 1 0 -28.4 0zM1513.77 793.62 a14.2 14.2 0 1 0 28.4 0 a14.2 14.2 0 1 0 -28.4 0zM1390.79 864.62 a14.2 14.2 0 1 0 28.4 0 a14.2 14.2 0 1 0 -28.4 0zM1267.81 793.62 a14.2 14.2 0 1 0 28.4 0 a14.2 14.2 0 1 0 -28.4 0zM1267.81 651.62 a14.2 14.2 0 1 0 28.4 0 a14.2 14.2 0 1 0 -28.4 0z" fill="rgba(53, 50, 153, 1)"></path><path d="M431.31 133.25L537.84 194.75L537.84 317.75L431.31 379.25L324.79 317.75L324.79 194.75zM750.88 -51.25L857.41 10.25L857.41 133.25L750.88 194.75L644.36 133.25L644.36 10.25zM857.41 133.25L963.93 194.75L963.93 317.75L857.41 379.25L750.88 317.75L750.88 194.75zM963.93 317.75L1070.46 379.25L1070.46 502.25L963.93 563.75L857.41 502.25L857.41 379.25zM1176.98 -51.25L1283.51 10.25L1283.51 133.25L1176.98 194.75L1070.46 133.25L1070.46 10.25z" stroke="rgba(6, 80, 156, 0.93)" stroke-width="2"></path></g><defs><mask id="SvgjsMask1033"><rect width="1440" height="560" fill="#ffffff"></rect></mask></defs></svg>