<svg xmlns="http://www.w3.org/2000/svg" version="1.1" xmlns:xlink="http://www.w3.org/1999/xlink" xmlns:svgjs="http://svgjs.dev/svgjs" width="1440" height="560" preserveAspectRatio="none" viewBox="0 0 1440 560"><g mask="url(&quot;#SvgjsMask1020&quot;)" fill="none"><rect width="1440" height="560" x="0" y="0" fill="rgba(255, 255, 255, 1)"></rect><path d="M109.13 -122.92L232.11 -51.92L232.11 90.08L109.13 161.08L-13.85 90.08L-13.85 -51.92zM355.09 -122.92L478.07 -51.92L478.07 90.08L355.09 161.08L232.11 90.08L232.11 -51.92zM478.07 90.08L601.05 161.08L601.05 303.08L478.07 374.08L355.09 303.08L355.09 161.08zM601.05 -122.92L724.03 -51.92L724.03 90.08L601.05 161.08L478.07 90.08L478.07 -51.92zM601.05 303.08L724.03 374.08L724.03 516.08L601.05 587.08L478.07 516.08L478.07 374.08zM724.03 516.08L847 587.08L847 729.08L724.03 800.08L601.05 729.08L601.05 587.08zM1092.96 -122.92L1215.94 -51.92L1215.94 90.08L1092.96 161.08L969.98 90.08L969.98 -51.92zM1215.94 90.08L1338.92 161.08L1338.92 303.08L1215.94 374.08L1092.96 303.08L1092.96 161.08zM1215.94 516.08L1338.92 587.08L1338.92 729.08L1215.94 800.08L1092.96 729.08L1092.96 587.08zM1338.92 -122.92L1461.9 -51.92L1461.9 90.08L1338.92 161.08L1215.94 90.08L1215.94 -51.92zM1461.9 90.08L1584.88 161.08L1584.88 303.08L1461.9 374.08L1338.92 303.08L1338.92 161.08zM1338.92 303.08L1461.9 374.08L1461.9 516.08L1338.92 587.08L1215.94 516.08L1215.94 374.08zM1461.9 516.08L1584.88 587.08L1584.88 729.08L1461.9 800.08L1338.92 729.08L1338.92 587.08z" stroke="rgba(53, 50, 153, 1)" stroke-width="2"></path><path d="M94.93 -122.92 a14.2 14.2 0 1 0 28.4 0 a14.2 14.2 0 1 0 -28.4 0zM217.91 -51.92 a14.2 14.2 0 1 0 28.4 0 a14.2 14.2 0 1 0 -28.4 0zM217.91 90.08 a14.2 14.2 0 1 0 28.4 0 a14.2 14.2 0 1 0 -28.4 0zM94.93 161.08 a14.2 14.2 0 1 0 28.4 0 a14.2 14.2 0 1 0 -28.4 0zM-28.05 90.08 a14.2 14.2 0 1 0 28.4 0 a14.2 14.2 0 1 0 -28.4 0zM-28.05 -51.92 a14.2 14.2 0 1 0 28.4 0 a14.2 14.2 0 1 0 -28.4 0zM340.89 -122.92 a14.2 14.2 0 1 0 28.4 0 a14.2 14.2 0 1 0 -28.4 0zM463.87 -51.92 a14.2 14.2 0 1 0 28.4 0 a14.2 14.2 0 1 0 -28.4 0zM463.87 90.08 a14.2 14.2 0 1 0 28.4 0 a14.2 14.2 0 1 0 -28.4 0zM340.89 161.08 a14.2 14.2 0 1 0 28.4 0 a14.2 14.2 0 1 0 -28.4 0zM586.85 161.08 a14.2 14.2 0 1 0 28.4 0 a14.2 14.2 0 1 0 -28.4 0zM586.85 303.08 a14.2 14.2 0 1 0 28.4 0 a14.2 14.2 0 1 0 -28.4 0zM463.87 374.08 a14.2 14.2 0 1 0 28.4 0 a14.2 14.2 0 1 0 -28.4 0zM340.89 303.08 a14.2 14.2 0 1 0 28.4 0 a14.2 14.2 0 1 0 -28.4 0zM586.85 -122.92 a14.2 14.2 0 1 0 28.4 0 a14.2 14.2 0 1 0 -28.4 0zM709.83 -51.92 a14.2 14.2 0 1 0 28.4 0 a14.2 14.2 0 1 0 -28.4 0zM709.83 90.08 a14.2 14.2 0 1 0 28.4 0 a14.2 14.2 0 1 0 -28.4 0zM709.83 374.08 a14.2 14.2 0 1 0 28.4 0 a14.2 14.2 0 1 0 -28.4 0zM709.83 516.08 a14.2 14.2 0 1 0 28.4 0 a14.2 14.2 0 1 0 -28.4 0zM586.85 587.08 a14.2 14.2 0 1 0 28.4 0 a14.2 14.2 0 1 0 -28.4 0zM463.87 516.08 a14.2 14.2 0 1 0 28.4 0 a14.2 14.2 0 1 0 -28.4 0zM832.8 587.08 a14.2 14.2 0 1 0 28.4 0 a14.2 14.2 0 1 0 -28.4 0zM832.8 729.08 a14.2 14.2 0 1 0 28.4 0 a14.2 14.2 0 1 0 -28.4 0zM709.83 800.08 a14.2 14.2 0 1 0 28.4 0 a14.2 14.2 0 1 0 -28.4 0zM586.85 729.08 a14.2 14.2 0 1 0 28.4 0 a14.2 14.2 0 1 0 -28.4 0zM1078.76 -122.92 a14.2 14.2 0 1 0 28.4 0 a14.2 14.2 0 1 0 -28.4 0zM1201.74 -51.92 a14.2 14.2 0 1 0 28.4 0 a14.2 14.2 0 1 0 -28.4 0zM1201.74 90.08 a14.2 14.2 0 1 0 28.4 0 a14.2 14.2 0 1 0 -28.4 0zM1078.76 161.08 a14.2 14.2 0 1 0 28.4 0 a14.2 14.2 0 1 0 -28.4 0zM955.78 90.08 a14.2 14.2 0 1 0 28.4 0 a14.2 14.2 0 1 0 -28.4 0zM955.78 -51.92 a14.2 14.2 0 1 0 28.4 0 a14.2 14.2 0 1 0 -28.4 0zM1324.72 161.08 a14.2 14.2 0 1 0 28.4 0 a14.2 14.2 0 1 0 -28.4 0zM1324.72 303.08 a14.2 14.2 0 1 0 28.4 0 a14.2 14.2 0 1 0 -28.4 0zM1201.74 374.08 a14.2 14.2 0 1 0 28.4 0 a14.2 14.2 0 1 0 -28.4 0zM1078.76 303.08 a14.2 14.2 0 1 0 28.4 0 a14.2 14.2 0 1 0 -28.4 0zM1201.74 516.08 a14.2 14.2 0 1 0 28.4 0 a14.2 14.2 0 1 0 -28.4 0zM1324.72 587.08 a14.2 14.2 0 1 0 28.4 0 a14.2 14.2 0 1 0 -28.4 0zM1324.72 729.08 a14.2 14.2 0 1 0 28.4 0 a14.2 14.2 0 1 0 -28.4 0zM1201.74 800.08 a14.2 14.2 0 1 0 28.4 0 a14.2 14.2 0 1 0 -28.4 0zM1078.76 729.08 a14.2 14.2 0 1 0 28.4 0 a14.2 14.2 0 1 0 -28.4 0zM1078.76 587.08 a14.2 14.2 0 1 0 28.4 0 a14.2 14.2 0 1 0 -28.4 0zM1324.72 -122.92 a14.2 14.2 0 1 0 28.4 0 a14.2 14.2 0 1 0 -28.4 0zM1447.7 -51.92 a14.2 14.2 0 1 0 28.4 0 a14.2 14.2 0 1 0 -28.4 0zM1447.7 90.08 a14.2 14.2 0 1 0 28.4 0 a14.2 14.2 0 1 0 -28.4 0zM1570.68 161.08 a14.2 14.2 0 1 0 28.4 0 a14.2 14.2 0 1 0 -28.4 0zM1570.68 303.08 a14.2 14.2 0 1 0 28.4 0 a14.2 14.2 0 1 0 -28.4 0zM1447.7 374.08 a14.2 14.2 0 1 0 28.4 0 a14.2 14.2 0 1 0 -28.4 0zM1447.7 516.08 a14.2 14.2 0 1 0 28.4 0 a14.2 14.2 0 1 0 -28.4 0zM1570.68 587.08 a14.2 14.2 0 1 0 28.4 0 a14.2 14.2 0 1 0 -28.4 0zM1570.68 729.08 a14.2 14.2 0 1 0 28.4 0 a14.2 14.2 0 1 0 -28.4 0zM1447.7 800.08 a14.2 14.2 0 1 0 28.4 0 a14.2 14.2 0 1 0 -28.4 0z" fill="rgba(53, 50, 153, 1)"></path><path d="M915.35 -10.96L1021.88 50.54L1021.88 173.54L915.35 235.04L808.83 173.54L808.83 50.54zM1021.88 173.54L1128.4 235.04L1128.4 358.04L1021.88 419.54L915.35 358.04L915.35 235.04zM1021.88 542.54L1128.4 604.04L1128.4 727.04L1021.88 788.54L915.35 727.04L915.35 604.04z" stroke="rgba(6, 80, 156, 0.93)" stroke-width="2"></path></g><defs><mask id="SvgjsMask1020"><rect width="1440" height="560" fill="#ffffff"></rect></mask></defs></svg>