<svg xmlns="http://www.w3.org/2000/svg" version="1.1" xmlns:xlink="http://www.w3.org/1999/xlink" xmlns:svgjs="http://svgjs.dev/svgjs" width="1440" height="560" preserveAspectRatio="none" viewBox="0 0 1440 560"><g mask="url(&quot;#SvgjsMask1019&quot;)" fill="none"><rect width="1440" height="560" x="0" y="0" fill="rgba(255, 255, 255, 1)"></rect><path d="M505 138.17L627.98 209.17L627.98 351.17L505 422.17L382.02 351.17L382.02 209.17zM627.98 351.17L750.96 422.17L750.96 564.17L627.98 635.17L505 564.17L505 422.17zM750.96 564.17L873.93 635.17L873.93 777.17L750.96 848.17L627.98 777.17L627.98 635.17zM1365.85 351.17L1488.83 422.17L1488.83 564.17L1365.85 635.17L1242.87 564.17L1242.87 422.17z" stroke="rgba(53, 50, 153, 1)" stroke-width="2"></path><path d="M490.8 138.17 a14.2 14.2 0 1 0 28.4 0 a14.2 14.2 0 1 0 -28.4 0zM613.78 209.17 a14.2 14.2 0 1 0 28.4 0 a14.2 14.2 0 1 0 -28.4 0zM613.78 351.17 a14.2 14.2 0 1 0 28.4 0 a14.2 14.2 0 1 0 -28.4 0zM490.8 422.17 a14.2 14.2 0 1 0 28.4 0 a14.2 14.2 0 1 0 -28.4 0zM367.82 351.17 a14.2 14.2 0 1 0 28.4 0 a14.2 14.2 0 1 0 -28.4 0zM367.82 209.17 a14.2 14.2 0 1 0 28.4 0 a14.2 14.2 0 1 0 -28.4 0zM736.76 422.17 a14.2 14.2 0 1 0 28.4 0 a14.2 14.2 0 1 0 -28.4 0zM736.76 564.17 a14.2 14.2 0 1 0 28.4 0 a14.2 14.2 0 1 0 -28.4 0zM613.78 635.17 a14.2 14.2 0 1 0 28.4 0 a14.2 14.2 0 1 0 -28.4 0zM490.8 564.17 a14.2 14.2 0 1 0 28.4 0 a14.2 14.2 0 1 0 -28.4 0zM859.73 635.17 a14.2 14.2 0 1 0 28.4 0 a14.2 14.2 0 1 0 -28.4 0zM859.73 777.17 a14.2 14.2 0 1 0 28.4 0 a14.2 14.2 0 1 0 -28.4 0zM736.76 848.17 a14.2 14.2 0 1 0 28.4 0 a14.2 14.2 0 1 0 -28.4 0zM613.78 777.17 a14.2 14.2 0 1 0 28.4 0 a14.2 14.2 0 1 0 -28.4 0zM1351.65 351.17 a14.2 14.2 0 1 0 28.4 0 a14.2 14.2 0 1 0 -28.4 0zM1474.63 422.17 a14.2 14.2 0 1 0 28.4 0 a14.2 14.2 0 1 0 -28.4 0zM1474.63 564.17 a14.2 14.2 0 1 0 28.4 0 a14.2 14.2 0 1 0 -28.4 0zM1351.65 635.17 a14.2 14.2 0 1 0 28.4 0 a14.2 14.2 0 1 0 -28.4 0zM1228.67 564.17 a14.2 14.2 0 1 0 28.4 0 a14.2 14.2 0 1 0 -28.4 0zM1228.67 422.17 a14.2 14.2 0 1 0 28.4 0 a14.2 14.2 0 1 0 -28.4 0z" fill="rgba(53, 50, 153, 1)"></path><path d="M196.74 465.52L303.27 527.02L303.27 650.02L196.74 711.52L90.22 650.02L90.22 527.02zM303.27 -87.98L409.79 -26.48L409.79 96.52L303.27 158.02L196.74 96.52L196.74 -26.48zM303.27 281.02L409.79 342.52L409.79 465.52L303.27 527.02L196.74 465.52L196.74 342.52zM516.32 -87.98L622.84 -26.48L622.84 96.52L516.32 158.02L409.79 96.52L409.79 -26.48zM729.36 281.02L835.89 342.52L835.89 465.52L729.36 527.02L622.84 465.52L622.84 342.52zM835.89 465.52L942.41 527.02L942.41 650.02L835.89 711.52L729.36 650.02L729.36 527.02z" stroke="rgba(6, 80, 156, 0.93)" stroke-width="2"></path></g><defs><mask id="SvgjsMask1019"><rect width="1440" height="560" fill="#ffffff"></rect></mask></defs></svg>