<svg xmlns="http://www.w3.org/2000/svg" version="1.1" xmlns:xlink="http://www.w3.org/1999/xlink" xmlns:svgjs="http://svgjs.dev/svgjs" width="1440" height="560" preserveAspectRatio="none" viewBox="0 0 1440 560"><g mask="url(&quot;#SvgjsMask1698&quot;)" fill="none"><rect width="1440" height="560" x="0" y="0" fill="rgba(255, 255, 255, 1)"></rect><path d="M52.69 439.48L225.9 539.48L225.9 739.48L52.69 839.48L-120.52 739.48L-120.52 539.48zM1438.37 439.48L1611.58 539.48L1611.58 739.48L1438.37 839.48L1265.16 739.48L1265.16 539.48z" stroke="rgba(53, 50, 153, 1)" stroke-width="2"></path><path d="M32.69 439.48 a20 20 0 1 0 40 0 a20 20 0 1 0 -40 0zM205.9 539.48 a20 20 0 1 0 40 0 a20 20 0 1 0 -40 0zM205.9 739.48 a20 20 0 1 0 40 0 a20 20 0 1 0 -40 0zM32.69 839.48 a20 20 0 1 0 40 0 a20 20 0 1 0 -40 0zM-140.52 739.48 a20 20 0 1 0 40 0 a20 20 0 1 0 -40 0zM-140.52 539.48 a20 20 0 1 0 40 0 a20 20 0 1 0 -40 0zM1418.37 439.48 a20 20 0 1 0 40 0 a20 20 0 1 0 -40 0zM1591.58 539.48 a20 20 0 1 0 40 0 a20 20 0 1 0 -40 0zM1591.58 739.48 a20 20 0 1 0 40 0 a20 20 0 1 0 -40 0zM1418.37 839.48 a20 20 0 1 0 40 0 a20 20 0 1 0 -40 0zM1245.16 739.48 a20 20 0 1 0 40 0 a20 20 0 1 0 -40 0zM1245.16 539.48 a20 20 0 1 0 40 0 a20 20 0 1 0 -40 0z" fill="rgba(53, 50, 153, 1)"></path><path d="M157.68 -150.78L317.9 -58.28L317.9 126.72L157.68 219.22L-2.54 126.72L-2.54 -58.28zM317.9 126.72L478.12 219.22L478.12 404.22L317.9 496.72L157.68 404.22L157.68 219.22zM478.12 404.22L638.34 496.72L638.34 681.72L478.12 774.22L317.9 681.72L317.9 496.72zM798.56 -150.78L958.78 -58.28L958.78 126.72L798.56 219.22L638.34 126.72L638.34 -58.28zM958.78 126.72L1119 219.22L1119 404.22L958.78 496.72L798.56 404.22L798.56 219.22zM1119 -150.78L1279.21 -58.28L1279.21 126.72L1119 219.22L958.78 126.72L958.78 -58.28zM1599.65 126.72L1759.87 219.22L1759.87 404.22L1599.65 496.72L1439.43 404.22L1439.43 219.22z" stroke="rgba(6, 80, 156, 0.93)" stroke-width="2"></path></g><defs><mask id="SvgjsMask1698"><rect width="1440" height="560" fill="#ffffff"></rect></mask></defs></svg>