<svg xmlns="http://www.w3.org/2000/svg" version="1.1" xmlns:xlink="http://www.w3.org/1999/xlink" xmlns:svgjs="http://svgjs.dev/svgjs" width="1440" height="560" preserveAspectRatio="none" viewBox="0 0 1440 560"><g mask="url(&quot;#SvgjsMask1704&quot;)" fill="none"><rect width="1440" height="560" x="0" y="0" fill="rgba(255, 255, 255, 1)"></rect><path d="M17.41 -121.67L183.69 -25.67L183.69 166.33L17.41 262.33L-148.87 166.33L-148.87 -25.67zM349.97 454.33L516.25 550.33L516.25 742.33L349.97 838.33L183.69 742.33L183.69 550.33z" stroke="rgba(53, 50, 153, 1)" stroke-width="2"></path><path d="M-1.79 -121.67 a19.2 19.2 0 1 0 38.4 0 a19.2 19.2 0 1 0 -38.4 0zM164.49 -25.67 a19.2 19.2 0 1 0 38.4 0 a19.2 19.2 0 1 0 -38.4 0zM164.49 166.33 a19.2 19.2 0 1 0 38.4 0 a19.2 19.2 0 1 0 -38.4 0zM-1.79 262.33 a19.2 19.2 0 1 0 38.4 0 a19.2 19.2 0 1 0 -38.4 0zM-168.07 166.33 a19.2 19.2 0 1 0 38.4 0 a19.2 19.2 0 1 0 -38.4 0zM-168.07 -25.67 a19.2 19.2 0 1 0 38.4 0 a19.2 19.2 0 1 0 -38.4 0zM330.77 454.33 a19.2 19.2 0 1 0 38.4 0 a19.2 19.2 0 1 0 -38.4 0zM497.05 550.33 a19.2 19.2 0 1 0 38.4 0 a19.2 19.2 0 1 0 -38.4 0zM497.05 742.33 a19.2 19.2 0 1 0 38.4 0 a19.2 19.2 0 1 0 -38.4 0zM330.77 838.33 a19.2 19.2 0 1 0 38.4 0 a19.2 19.2 0 1 0 -38.4 0zM164.49 742.33 a19.2 19.2 0 1 0 38.4 0 a19.2 19.2 0 1 0 -38.4 0zM164.49 550.33 a19.2 19.2 0 1 0 38.4 0 a19.2 19.2 0 1 0 -38.4 0z" fill="rgba(53, 50, 153, 1)"></path><path d="M396.94 -108.14L564.95 -11.14L564.95 182.86L396.94 279.86L228.92 182.86L228.92 -11.14zM732.96 473.86L900.98 570.86L900.98 764.86L732.96 861.86L564.95 764.86L564.95 570.86zM1068.99 -108.14L1237.01 -11.14L1237.01 182.86L1068.99 279.86L900.98 182.86L900.98 -11.14zM1068.99 473.86L1237.01 570.86L1237.01 764.86L1068.99 861.86L900.98 764.86L900.98 570.86zM1405.02 -108.14L1573.03 -11.14L1573.03 182.86L1405.02 279.86L1237.01 182.86L1237.01 -11.14z" stroke="rgba(6, 80, 156, 0.93)" stroke-width="2"></path></g><defs><mask id="SvgjsMask1704"><rect width="1440" height="560" fill="#ffffff"></rect></mask></defs></svg>