<svg xmlns="http://www.w3.org/2000/svg" version="1.1" xmlns:xlink="http://www.w3.org/1999/xlink" xmlns:svgjs="http://svgjs.dev/svgjs" width="1440" height="560" preserveAspectRatio="none" viewBox="0 0 1440 560"><g mask="url(&quot;#SvgjsMask1703&quot;)" fill="none"><rect width="1440" height="560" x="0" y="0" fill="rgba(255, 255, 255, 1)"></rect><path d="M1093.59 -57.67L1266.8 42.33L1266.8 242.33L1093.59 342.33L920.38 242.33L920.38 42.33zM1440.01 -57.67L1613.22 42.33L1613.22 242.33L1440.01 342.33L1266.8 242.33L1266.8 42.33zM1440.01 542.33L1613.22 642.33L1613.22 842.33L1440.01 942.33L1266.8 842.33L1266.8 642.33z" stroke="rgba(53, 50, 153, 1)" stroke-width="2"></path><path d="M1073.59 -57.67 a20 20 0 1 0 40 0 a20 20 0 1 0 -40 0zM1246.8 42.33 a20 20 0 1 0 40 0 a20 20 0 1 0 -40 0zM1246.8 242.33 a20 20 0 1 0 40 0 a20 20 0 1 0 -40 0zM1073.59 342.33 a20 20 0 1 0 40 0 a20 20 0 1 0 -40 0zM900.38 242.33 a20 20 0 1 0 40 0 a20 20 0 1 0 -40 0zM900.38 42.33 a20 20 0 1 0 40 0 a20 20 0 1 0 -40 0zM1420.01 -57.67 a20 20 0 1 0 40 0 a20 20 0 1 0 -40 0zM1593.22 42.33 a20 20 0 1 0 40 0 a20 20 0 1 0 -40 0zM1593.22 242.33 a20 20 0 1 0 40 0 a20 20 0 1 0 -40 0zM1420.01 342.33 a20 20 0 1 0 40 0 a20 20 0 1 0 -40 0zM1420.01 542.33 a20 20 0 1 0 40 0 a20 20 0 1 0 -40 0zM1593.22 642.33 a20 20 0 1 0 40 0 a20 20 0 1 0 -40 0zM1593.22 842.33 a20 20 0 1 0 40 0 a20 20 0 1 0 -40 0zM1420.01 942.33 a20 20 0 1 0 40 0 a20 20 0 1 0 -40 0zM1246.8 842.33 a20 20 0 1 0 40 0 a20 20 0 1 0 -40 0zM1246.8 642.33 a20 20 0 1 0 40 0 a20 20 0 1 0 -40 0z" fill="rgba(53, 50, 153, 1)"></path><path d="M158.19 -75.84L326.2 21.16L326.2 215.16L158.19 312.16L-9.82 215.16L-9.82 21.16zM494.22 -75.84L662.23 21.16L662.23 215.16L494.22 312.16L326.2 215.16L326.2 21.16zM662.23 215.16L830.24 312.16L830.24 506.16L662.23 603.16L494.22 506.16L494.22 312.16zM1166.27 -75.84L1334.29 21.16L1334.29 215.16L1166.27 312.16L998.26 215.16L998.26 21.16z" stroke="rgba(6, 80, 156, 0.93)" stroke-width="2"></path></g><defs><mask id="SvgjsMask1703"><rect width="1440" height="560" fill="#ffffff"></rect></mask></defs></svg>