<svg xmlns="http://www.w3.org/2000/svg" version="1.1" xmlns:xlink="http://www.w3.org/1999/xlink" xmlns:svgjs="http://svgjs.dev/svgjs" width="1440" height="560" preserveAspectRatio="none" viewBox="0 0 1440 560"><g mask="url(&quot;#SvgjsMask1030&quot;)" fill="none"><rect width="1440" height="560" x="0" y="0" fill="rgba(255, 255, 255, 1)"></rect><path d="M170.56 100.09L293.54 171.09L293.54 313.09L170.56 384.09L47.58 313.09L47.58 171.09zM47.58 313.09L170.56 384.09L170.56 526.09L47.58 597.09L-75.4 526.09L-75.4 384.09zM293.54 -112.91L416.52 -41.91L416.52 100.09L293.54 171.09L170.56 100.09L170.56 -41.91zM662.48 100.09L785.45 171.09L785.45 313.09L662.48 384.09L539.5 313.09L539.5 171.09zM662.48 526.09L785.45 597.09L785.45 739.09L662.48 810.09L539.5 739.09L539.5 597.09zM908.43 526.09L1031.41 597.09L1031.41 739.09L908.43 810.09L785.45 739.09L785.45 597.09zM1031.41 -112.91L1154.39 -41.91L1154.39 100.09L1031.41 171.09L908.43 100.09L908.43 -41.91zM1154.39 100.09L1277.37 171.09L1277.37 313.09L1154.39 384.09L1031.41 313.09L1031.41 171.09z" stroke="rgba(53, 50, 153, 1)" stroke-width="2"></path><path d="M156.36 100.09 a14.2 14.2 0 1 0 28.4 0 a14.2 14.2 0 1 0 -28.4 0zM279.34 171.09 a14.2 14.2 0 1 0 28.4 0 a14.2 14.2 0 1 0 -28.4 0zM279.34 313.09 a14.2 14.2 0 1 0 28.4 0 a14.2 14.2 0 1 0 -28.4 0zM156.36 384.09 a14.2 14.2 0 1 0 28.4 0 a14.2 14.2 0 1 0 -28.4 0zM33.38 313.09 a14.2 14.2 0 1 0 28.4 0 a14.2 14.2 0 1 0 -28.4 0zM33.38 171.09 a14.2 14.2 0 1 0 28.4 0 a14.2 14.2 0 1 0 -28.4 0zM156.36 526.09 a14.2 14.2 0 1 0 28.4 0 a14.2 14.2 0 1 0 -28.4 0zM33.38 597.09 a14.2 14.2 0 1 0 28.4 0 a14.2 14.2 0 1 0 -28.4 0zM-89.6 526.09 a14.2 14.2 0 1 0 28.4 0 a14.2 14.2 0 1 0 -28.4 0zM-89.6 384.09 a14.2 14.2 0 1 0 28.4 0 a14.2 14.2 0 1 0 -28.4 0zM279.34 -112.91 a14.2 14.2 0 1 0 28.4 0 a14.2 14.2 0 1 0 -28.4 0zM402.32 -41.91 a14.2 14.2 0 1 0 28.4 0 a14.2 14.2 0 1 0 -28.4 0zM402.32 100.09 a14.2 14.2 0 1 0 28.4 0 a14.2 14.2 0 1 0 -28.4 0zM156.36 -41.91 a14.2 14.2 0 1 0 28.4 0 a14.2 14.2 0 1 0 -28.4 0zM648.28 100.09 a14.2 14.2 0 1 0 28.4 0 a14.2 14.2 0 1 0 -28.4 0zM771.25 171.09 a14.2 14.2 0 1 0 28.4 0 a14.2 14.2 0 1 0 -28.4 0zM771.25 313.09 a14.2 14.2 0 1 0 28.4 0 a14.2 14.2 0 1 0 -28.4 0zM648.28 384.09 a14.2 14.2 0 1 0 28.4 0 a14.2 14.2 0 1 0 -28.4 0zM525.3 313.09 a14.2 14.2 0 1 0 28.4 0 a14.2 14.2 0 1 0 -28.4 0zM525.3 171.09 a14.2 14.2 0 1 0 28.4 0 a14.2 14.2 0 1 0 -28.4 0zM648.28 526.09 a14.2 14.2 0 1 0 28.4 0 a14.2 14.2 0 1 0 -28.4 0zM771.25 597.09 a14.2 14.2 0 1 0 28.4 0 a14.2 14.2 0 1 0 -28.4 0zM771.25 739.09 a14.2 14.2 0 1 0 28.4 0 a14.2 14.2 0 1 0 -28.4 0zM648.28 810.09 a14.2 14.2 0 1 0 28.4 0 a14.2 14.2 0 1 0 -28.4 0zM525.3 739.09 a14.2 14.2 0 1 0 28.4 0 a14.2 14.2 0 1 0 -28.4 0zM525.3 597.09 a14.2 14.2 0 1 0 28.4 0 a14.2 14.2 0 1 0 -28.4 0zM894.23 526.09 a14.2 14.2 0 1 0 28.4 0 a14.2 14.2 0 1 0 -28.4 0zM1017.21 597.09 a14.2 14.2 0 1 0 28.4 0 a14.2 14.2 0 1 0 -28.4 0zM1017.21 739.09 a14.2 14.2 0 1 0 28.4 0 a14.2 14.2 0 1 0 -28.4 0zM894.23 810.09 a14.2 14.2 0 1 0 28.4 0 a14.2 14.2 0 1 0 -28.4 0zM1017.21 -112.91 a14.2 14.2 0 1 0 28.4 0 a14.2 14.2 0 1 0 -28.4 0zM1140.19 -41.91 a14.2 14.2 0 1 0 28.4 0 a14.2 14.2 0 1 0 -28.4 0zM1140.19 100.09 a14.2 14.2 0 1 0 28.4 0 a14.2 14.2 0 1 0 -28.4 0zM1017.21 171.09 a14.2 14.2 0 1 0 28.4 0 a14.2 14.2 0 1 0 -28.4 0zM894.23 100.09 a14.2 14.2 0 1 0 28.4 0 a14.2 14.2 0 1 0 -28.4 0zM894.23 -41.91 a14.2 14.2 0 1 0 28.4 0 a14.2 14.2 0 1 0 -28.4 0zM1263.17 171.09 a14.2 14.2 0 1 0 28.4 0 a14.2 14.2 0 1 0 -28.4 0zM1263.17 313.09 a14.2 14.2 0 1 0 28.4 0 a14.2 14.2 0 1 0 -28.4 0zM1140.19 384.09 a14.2 14.2 0 1 0 28.4 0 a14.2 14.2 0 1 0 -28.4 0zM1017.21 313.09 a14.2 14.2 0 1 0 28.4 0 a14.2 14.2 0 1 0 -28.4 0z" fill="rgba(53, 50, 153, 1)"></path><path d="M24.17 -43.93L130.69 17.57L130.69 140.57L24.17 202.07L-82.35 140.57L-82.35 17.57zM130.69 509.57L237.22 571.07L237.22 694.07L130.69 755.57L24.17 694.07L24.17 571.07zM343.74 140.57L450.27 202.07L450.27 325.07L343.74 386.57L237.22 325.07L237.22 202.07zM450.27 325.07L556.79 386.57L556.79 509.57L450.27 571.07L343.74 509.57L343.74 386.57zM1195.94 140.57L1302.46 202.07L1302.46 325.07L1195.94 386.57L1089.41 325.07L1089.41 202.07zM1089.41 325.07L1195.94 386.57L1195.94 509.57L1089.41 571.07L982.89 509.57L982.89 386.57zM1195.94 509.57L1302.46 571.07L1302.46 694.07L1195.94 755.57L1089.41 694.07L1089.41 571.07zM1302.46 -43.93L1408.98 17.57L1408.98 140.57L1302.46 202.07L1195.94 140.57L1195.94 17.57z" stroke="rgba(6, 80, 156, 0.93)" stroke-width="2"></path></g><defs><mask id="SvgjsMask1030"><rect width="1440" height="560" fill="#ffffff"></rect></mask></defs></svg>