<svg xmlns="http://www.w3.org/2000/svg" version="1.1" xmlns:xlink="http://www.w3.org/1999/xlink" xmlns:svgjs="http://svgjs.dev/svgjs" width="1440" height="560" preserveAspectRatio="none" viewBox="0 0 1440 560"><g mask="url(&quot;#SvgjsMask1022&quot;)" fill="none"><rect width="1440" height="560" x="0" y="0" fill="rgba(255, 255, 255, 1)"></rect><path d="M110.34 -69.88L233.32 1.12L233.32 143.12L110.34 214.12L-12.64 143.12L-12.64 1.12zM356.3 356.12L479.28 427.12L479.28 569.12L356.3 640.12L233.32 569.12L233.32 427.12zM602.26 356.12L725.24 427.12L725.24 569.12L602.26 640.12L479.28 569.12L479.28 427.12zM848.21 -69.88L971.19 1.12L971.19 143.12L848.21 214.12L725.24 143.12L725.24 1.12zM971.19 143.12L1094.17 214.12L1094.17 356.12L971.19 427.12L848.21 356.12L848.21 214.12zM848.21 356.12L971.19 427.12L971.19 569.12L848.21 640.12L725.24 569.12L725.24 427.12zM1217.15 143.12L1340.13 214.12L1340.13 356.12L1217.15 427.12L1094.17 356.12L1094.17 214.12zM1463.11 143.12L1586.09 214.12L1586.09 356.12L1463.11 427.12L1340.13 356.12L1340.13 214.12zM1340.13 356.12L1463.11 427.12L1463.11 569.12L1340.13 640.12L1217.15 569.12L1217.15 427.12z" stroke="rgba(53, 50, 153, 1)" stroke-width="2"></path><path d="M96.14 -69.88 a14.2 14.2 0 1 0 28.4 0 a14.2 14.2 0 1 0 -28.4 0zM219.12 1.12 a14.2 14.2 0 1 0 28.4 0 a14.2 14.2 0 1 0 -28.4 0zM219.12 143.12 a14.2 14.2 0 1 0 28.4 0 a14.2 14.2 0 1 0 -28.4 0zM96.14 214.12 a14.2 14.2 0 1 0 28.4 0 a14.2 14.2 0 1 0 -28.4 0zM-26.84 143.12 a14.2 14.2 0 1 0 28.4 0 a14.2 14.2 0 1 0 -28.4 0zM-26.84 1.12 a14.2 14.2 0 1 0 28.4 0 a14.2 14.2 0 1 0 -28.4 0zM342.1 356.12 a14.2 14.2 0 1 0 28.4 0 a14.2 14.2 0 1 0 -28.4 0zM465.08 427.12 a14.2 14.2 0 1 0 28.4 0 a14.2 14.2 0 1 0 -28.4 0zM465.08 569.12 a14.2 14.2 0 1 0 28.4 0 a14.2 14.2 0 1 0 -28.4 0zM342.1 640.12 a14.2 14.2 0 1 0 28.4 0 a14.2 14.2 0 1 0 -28.4 0zM219.12 569.12 a14.2 14.2 0 1 0 28.4 0 a14.2 14.2 0 1 0 -28.4 0zM219.12 427.12 a14.2 14.2 0 1 0 28.4 0 a14.2 14.2 0 1 0 -28.4 0zM588.06 356.12 a14.2 14.2 0 1 0 28.4 0 a14.2 14.2 0 1 0 -28.4 0zM711.04 427.12 a14.2 14.2 0 1 0 28.4 0 a14.2 14.2 0 1 0 -28.4 0zM711.04 569.12 a14.2 14.2 0 1 0 28.4 0 a14.2 14.2 0 1 0 -28.4 0zM588.06 640.12 a14.2 14.2 0 1 0 28.4 0 a14.2 14.2 0 1 0 -28.4 0zM834.01 -69.88 a14.2 14.2 0 1 0 28.4 0 a14.2 14.2 0 1 0 -28.4 0zM956.99 1.12 a14.2 14.2 0 1 0 28.4 0 a14.2 14.2 0 1 0 -28.4 0zM956.99 143.12 a14.2 14.2 0 1 0 28.4 0 a14.2 14.2 0 1 0 -28.4 0zM834.01 214.12 a14.2 14.2 0 1 0 28.4 0 a14.2 14.2 0 1 0 -28.4 0zM711.04 143.12 a14.2 14.2 0 1 0 28.4 0 a14.2 14.2 0 1 0 -28.4 0zM711.04 1.12 a14.2 14.2 0 1 0 28.4 0 a14.2 14.2 0 1 0 -28.4 0zM1079.97 214.12 a14.2 14.2 0 1 0 28.4 0 a14.2 14.2 0 1 0 -28.4 0zM1079.97 356.12 a14.2 14.2 0 1 0 28.4 0 a14.2 14.2 0 1 0 -28.4 0zM956.99 427.12 a14.2 14.2 0 1 0 28.4 0 a14.2 14.2 0 1 0 -28.4 0zM834.01 356.12 a14.2 14.2 0 1 0 28.4 0 a14.2 14.2 0 1 0 -28.4 0zM956.99 569.12 a14.2 14.2 0 1 0 28.4 0 a14.2 14.2 0 1 0 -28.4 0zM834.01 640.12 a14.2 14.2 0 1 0 28.4 0 a14.2 14.2 0 1 0 -28.4 0zM1202.95 143.12 a14.2 14.2 0 1 0 28.4 0 a14.2 14.2 0 1 0 -28.4 0zM1325.93 214.12 a14.2 14.2 0 1 0 28.4 0 a14.2 14.2 0 1 0 -28.4 0zM1325.93 356.12 a14.2 14.2 0 1 0 28.4 0 a14.2 14.2 0 1 0 -28.4 0zM1202.95 427.12 a14.2 14.2 0 1 0 28.4 0 a14.2 14.2 0 1 0 -28.4 0zM1448.91 143.12 a14.2 14.2 0 1 0 28.4 0 a14.2 14.2 0 1 0 -28.4 0zM1571.89 214.12 a14.2 14.2 0 1 0 28.4 0 a14.2 14.2 0 1 0 -28.4 0zM1571.89 356.12 a14.2 14.2 0 1 0 28.4 0 a14.2 14.2 0 1 0 -28.4 0zM1448.91 427.12 a14.2 14.2 0 1 0 28.4 0 a14.2 14.2 0 1 0 -28.4 0zM1448.91 569.12 a14.2 14.2 0 1 0 28.4 0 a14.2 14.2 0 1 0 -28.4 0zM1325.93 640.12 a14.2 14.2 0 1 0 28.4 0 a14.2 14.2 0 1 0 -28.4 0zM1202.95 569.12 a14.2 14.2 0 1 0 28.4 0 a14.2 14.2 0 1 0 -28.4 0z" fill="rgba(53, 50, 153, 1)"></path><path d="M1284.75 444.75L1391.27 506.25L1391.27 629.25L1284.75 690.75L1178.22 629.25L1178.22 506.25zM1497.79 75.75L1604.32 137.25L1604.32 260.25L1497.79 321.75L1391.27 260.25L1391.27 137.25zM1391.27 260.25L1497.79 321.75L1497.79 444.75L1391.27 506.25L1284.75 444.75L1284.75 321.75z" stroke="rgba(6, 80, 156, 0.93)" stroke-width="2"></path></g><defs><mask id="SvgjsMask1022"><rect width="1440" height="560" fill="#ffffff"></rect></mask></defs></svg>