<svg xmlns="http://www.w3.org/2000/svg" version="1.1" xmlns:xlink="http://www.w3.org/1999/xlink" xmlns:svgjs="http://svgjs.dev/svgjs" width="1440" height="560" preserveAspectRatio="none" viewBox="0 0 1440 560"><g mask="url(&quot;#SvgjsMask1317&quot;)" fill="none"><rect width="1440" height="560" x="0" y="0" fill="rgba(255, 255, 255, 1)"></rect><path d="M396.71 445.12L554.33 536.12L554.33 718.12L396.71 809.12L239.09 718.12L239.09 536.12zM1184.82 172.12L1342.44 263.12L1342.44 445.12L1184.82 536.12L1027.2 445.12L1027.2 263.12z" stroke="rgba(53, 50, 153, 1)" stroke-width="2"></path><path d="M378.51 445.12 a18.2 18.2 0 1 0 36.4 0 a18.2 18.2 0 1 0 -36.4 0zM536.13 536.12 a18.2 18.2 0 1 0 36.4 0 a18.2 18.2 0 1 0 -36.4 0zM536.13 718.12 a18.2 18.2 0 1 0 36.4 0 a18.2 18.2 0 1 0 -36.4 0zM378.51 809.12 a18.2 18.2 0 1 0 36.4 0 a18.2 18.2 0 1 0 -36.4 0zM220.89 718.12 a18.2 18.2 0 1 0 36.4 0 a18.2 18.2 0 1 0 -36.4 0zM220.89 536.12 a18.2 18.2 0 1 0 36.4 0 a18.2 18.2 0 1 0 -36.4 0zM1166.62 172.12 a18.2 18.2 0 1 0 36.4 0 a18.2 18.2 0 1 0 -36.4 0zM1324.24 263.12 a18.2 18.2 0 1 0 36.4 0 a18.2 18.2 0 1 0 -36.4 0zM1324.24 445.12 a18.2 18.2 0 1 0 36.4 0 a18.2 18.2 0 1 0 -36.4 0zM1166.62 536.12 a18.2 18.2 0 1 0 36.4 0 a18.2 18.2 0 1 0 -36.4 0zM1009 445.12 a18.2 18.2 0 1 0 36.4 0 a18.2 18.2 0 1 0 -36.4 0zM1009 263.12 a18.2 18.2 0 1 0 36.4 0 a18.2 18.2 0 1 0 -36.4 0z" fill="rgba(53, 50, 153, 1)"></path><path d="M275.96 154.1L442.24 250.1L442.24 442.1L275.96 538.1L109.68 442.1L109.68 250.1zM109.68 442.1L275.96 538.1L275.96 730.1L109.68 826.1L-56.6 730.1L-56.6 538.1zM608.52 154.1L774.81 250.1L774.81 442.1L608.52 538.1L442.24 442.1L442.24 250.1zM774.81 -133.9L941.09 -37.9L941.09 154.1L774.81 250.1L608.52 154.1L608.52 -37.9zM941.09 154.1L1107.37 250.1L1107.37 442.1L941.09 538.1L774.81 442.1L774.81 250.1zM774.81 442.1L941.09 538.1L941.09 730.1L774.81 826.1L608.52 730.1L608.52 538.1zM1439.93 -133.9L1606.21 -37.9L1606.21 154.1L1439.93 250.1L1273.65 154.1L1273.65 -37.9zM1606.21 154.1L1772.5 250.1L1772.5 442.1L1606.21 538.1L1439.93 442.1L1439.93 250.1zM1439.93 442.1L1606.21 538.1L1606.21 730.1L1439.93 826.1L1273.65 730.1L1273.65 538.1z" stroke="rgba(6, 80, 156, 0.93)" stroke-width="2"></path></g><defs><mask id="SvgjsMask1317"><rect width="1440" height="560" fill="#ffffff"></rect></mask></defs></svg>