<svg xmlns="http://www.w3.org/2000/svg" version="1.1" xmlns:xlink="http://www.w3.org/1999/xlink" xmlns:svgjs="http://svgjs.dev/svgjs" width="1440" height="560" preserveAspectRatio="none" viewBox="0 0 1440 560"><g mask="url(&quot;#SvgjsMask1158&quot;)" fill="none"><rect width="1440" height="560" x="0" y="0" fill="rgba(255, 255, 255, 1)"></rect><path d="M277.59 126.79L410.96 203.79L410.96 357.79L277.59 434.79L144.22 357.79L144.22 203.79zM144.22 357.79L277.59 434.79L277.59 588.79L144.22 665.79L10.85 588.79L10.85 434.79zM410.96 -104.21L544.34 -27.21L544.34 126.79L410.96 203.79L277.59 126.79L277.59 -27.21zM1077.82 126.79L1211.19 203.79L1211.19 357.79L1077.82 434.79L944.45 357.79L944.45 203.79zM944.45 357.79L1077.82 434.79L1077.82 588.79L944.45 665.79L811.08 588.79L811.08 434.79zM1344.57 126.79L1477.94 203.79L1477.94 357.79L1344.57 434.79L1211.19 357.79L1211.19 203.79zM1611.31 126.79L1744.68 203.79L1744.68 357.79L1611.31 434.79L1477.94 357.79L1477.94 203.79zM1477.94 357.79L1611.31 434.79L1611.31 588.79L1477.94 665.79L1344.57 588.79L1344.57 434.79z" stroke="rgba(53, 50, 153, 1)" stroke-width="2"></path><path d="M262.19 126.79 a15.4 15.4 0 1 0 30.8 0 a15.4 15.4 0 1 0 -30.8 0zM395.56 203.79 a15.4 15.4 0 1 0 30.8 0 a15.4 15.4 0 1 0 -30.8 0zM395.56 357.79 a15.4 15.4 0 1 0 30.8 0 a15.4 15.4 0 1 0 -30.8 0zM262.19 434.79 a15.4 15.4 0 1 0 30.8 0 a15.4 15.4 0 1 0 -30.8 0zM128.82 357.79 a15.4 15.4 0 1 0 30.8 0 a15.4 15.4 0 1 0 -30.8 0zM128.82 203.79 a15.4 15.4 0 1 0 30.8 0 a15.4 15.4 0 1 0 -30.8 0zM262.19 588.79 a15.4 15.4 0 1 0 30.8 0 a15.4 15.4 0 1 0 -30.8 0zM128.82 665.79 a15.4 15.4 0 1 0 30.8 0 a15.4 15.4 0 1 0 -30.8 0zM-4.55 588.79 a15.4 15.4 0 1 0 30.8 0 a15.4 15.4 0 1 0 -30.8 0zM-4.55 434.79 a15.4 15.4 0 1 0 30.8 0 a15.4 15.4 0 1 0 -30.8 0zM395.56 -104.21 a15.4 15.4 0 1 0 30.8 0 a15.4 15.4 0 1 0 -30.8 0zM528.94 -27.21 a15.4 15.4 0 1 0 30.8 0 a15.4 15.4 0 1 0 -30.8 0zM528.94 126.79 a15.4 15.4 0 1 0 30.8 0 a15.4 15.4 0 1 0 -30.8 0zM262.19 -27.21 a15.4 15.4 0 1 0 30.8 0 a15.4 15.4 0 1 0 -30.8 0zM1062.42 126.79 a15.4 15.4 0 1 0 30.8 0 a15.4 15.4 0 1 0 -30.8 0zM1195.79 203.79 a15.4 15.4 0 1 0 30.8 0 a15.4 15.4 0 1 0 -30.8 0zM1195.79 357.79 a15.4 15.4 0 1 0 30.8 0 a15.4 15.4 0 1 0 -30.8 0zM1062.42 434.79 a15.4 15.4 0 1 0 30.8 0 a15.4 15.4 0 1 0 -30.8 0zM929.05 357.79 a15.4 15.4 0 1 0 30.8 0 a15.4 15.4 0 1 0 -30.8 0zM929.05 203.79 a15.4 15.4 0 1 0 30.8 0 a15.4 15.4 0 1 0 -30.8 0zM1062.42 588.79 a15.4 15.4 0 1 0 30.8 0 a15.4 15.4 0 1 0 -30.8 0zM929.05 665.79 a15.4 15.4 0 1 0 30.8 0 a15.4 15.4 0 1 0 -30.8 0zM795.68 588.79 a15.4 15.4 0 1 0 30.8 0 a15.4 15.4 0 1 0 -30.8 0zM795.68 434.79 a15.4 15.4 0 1 0 30.8 0 a15.4 15.4 0 1 0 -30.8 0zM1329.17 126.79 a15.4 15.4 0 1 0 30.8 0 a15.4 15.4 0 1 0 -30.8 0zM1462.54 203.79 a15.4 15.4 0 1 0 30.8 0 a15.4 15.4 0 1 0 -30.8 0zM1462.54 357.79 a15.4 15.4 0 1 0 30.8 0 a15.4 15.4 0 1 0 -30.8 0zM1329.17 434.79 a15.4 15.4 0 1 0 30.8 0 a15.4 15.4 0 1 0 -30.8 0zM1595.91 126.79 a15.4 15.4 0 1 0 30.8 0 a15.4 15.4 0 1 0 -30.8 0zM1729.28 203.79 a15.4 15.4 0 1 0 30.8 0 a15.4 15.4 0 1 0 -30.8 0zM1729.28 357.79 a15.4 15.4 0 1 0 30.8 0 a15.4 15.4 0 1 0 -30.8 0zM1595.91 434.79 a15.4 15.4 0 1 0 30.8 0 a15.4 15.4 0 1 0 -30.8 0zM1595.91 588.79 a15.4 15.4 0 1 0 30.8 0 a15.4 15.4 0 1 0 -30.8 0zM1462.54 665.79 a15.4 15.4 0 1 0 30.8 0 a15.4 15.4 0 1 0 -30.8 0zM1329.17 588.79 a15.4 15.4 0 1 0 30.8 0 a15.4 15.4 0 1 0 -30.8 0z" fill="rgba(53, 50, 153, 1)"></path><path d="M153.15 57.69L238.89 107.19L238.89 206.19L153.15 255.69L67.41 206.19L67.41 107.19zM324.63 354.69L410.37 404.19L410.37 503.19L324.63 552.69L238.89 503.19L238.89 404.19zM496.1 57.69L581.84 107.19L581.84 206.19L496.1 255.69L410.37 206.19L410.37 107.19zM667.58 57.69L753.32 107.19L753.32 206.19L667.58 255.69L581.84 206.19L581.84 107.19zM667.58 354.69L753.32 404.19L753.32 503.19L667.58 552.69L581.84 503.19L581.84 404.19zM1010.54 57.69L1096.28 107.19L1096.28 206.19L1010.54 255.69L924.8 206.19L924.8 107.19zM924.8 206.19L1010.54 255.69L1010.54 354.69L924.8 404.19L839.06 354.69L839.06 255.69zM924.8 503.19L1010.54 552.69L1010.54 651.69L924.8 701.19L839.06 651.69L839.06 552.69zM1267.76 503.19L1353.49 552.69L1353.49 651.69L1267.76 701.19L1182.02 651.69L1182.02 552.69z" stroke="rgba(6, 80, 156, 0.93)" stroke-width="2"></path></g><defs><mask id="SvgjsMask1158"><rect width="1440" height="560" fill="#ffffff"></rect></mask></defs></svg>