<svg xmlns="http://www.w3.org/2000/svg" version="1.1" xmlns:xlink="http://www.w3.org/1999/xlink" xmlns:svgjs="http://svgjs.dev/svgjs" width="1440" height="560" preserveAspectRatio="none" viewBox="0 0 1440 560"><g mask="url(&quot;#SvgjsMask1368&quot;)" fill="none"><rect width="1440" height="560" x="0" y="0" fill="rgba(255, 255, 255, 1)"></rect><path d="M1100.59 -168.01L1265.14 -73.01L1265.14 116.99L1100.59 211.99L936.04 116.99L936.04 -73.01zM1100.59 401.99L1265.14 496.99L1265.14 686.99L1100.59 781.99L936.04 686.99L936.04 496.99z" stroke="rgba(53, 50, 153, 1)" stroke-width="2"></path><path d="M1081.59 -168.01 a19 19 0 1 0 38 0 a19 19 0 1 0 -38 0zM1246.14 -73.01 a19 19 0 1 0 38 0 a19 19 0 1 0 -38 0zM1246.14 116.99 a19 19 0 1 0 38 0 a19 19 0 1 0 -38 0zM1081.59 211.99 a19 19 0 1 0 38 0 a19 19 0 1 0 -38 0zM917.04 116.99 a19 19 0 1 0 38 0 a19 19 0 1 0 -38 0zM917.04 -73.01 a19 19 0 1 0 38 0 a19 19 0 1 0 -38 0zM1081.59 401.99 a19 19 0 1 0 38 0 a19 19 0 1 0 -38 0zM1246.14 496.99 a19 19 0 1 0 38 0 a19 19 0 1 0 -38 0zM1246.14 686.99 a19 19 0 1 0 38 0 a19 19 0 1 0 -38 0zM1081.59 781.99 a19 19 0 1 0 38 0 a19 19 0 1 0 -38 0zM917.04 686.99 a19 19 0 1 0 38 0 a19 19 0 1 0 -38 0zM917.04 496.99 a19 19 0 1 0 38 0 a19 19 0 1 0 -38 0z" fill="rgba(53, 50, 153, 1)"></path><path d="M133.02 425.35L266.39 502.35L266.39 656.35L133.02 733.35L-0.35 656.35L-0.35 502.35zM399.76 425.35L533.14 502.35L533.14 656.35L399.76 733.35L266.39 656.35L266.39 502.35zM933.25 425.35L1066.62 502.35L1066.62 656.35L933.25 733.35L799.88 656.35L799.88 502.35zM1333.37 194.35L1466.74 271.35L1466.74 425.35L1333.37 502.35L1199.99 425.35L1199.99 271.35zM1466.74 -36.65L1600.11 40.35L1600.11 194.35L1466.74 271.35L1333.37 194.35L1333.37 40.35zM1466.74 425.35L1600.11 502.35L1600.11 656.35L1466.74 733.35L1333.37 656.35L1333.37 502.35z" stroke="rgba(6, 80, 156, 0.93)" stroke-width="2"></path></g><defs><mask id="SvgjsMask1368"><rect width="1440" height="560" fill="#ffffff"></rect></mask></defs></svg>