<svg xmlns="http://www.w3.org/2000/svg" version="1.1" xmlns:xlink="http://www.w3.org/1999/xlink" xmlns:svgjs="http://svgjs.dev/svgjs" width="1440" height="560" preserveAspectRatio="none" viewBox="0 0 1440 560"><g mask="url(&quot;#SvgjsMask1489&quot;)" fill="none"><rect width="1440" height="560" x="0" y="0" fill="rgba(255, 255, 255, 1)"></rect><path d="M82.37 476.67L220.07 556.17L220.07 715.17L82.37 794.67L-55.33 715.17L-55.33 556.17zM633.18 476.67L770.88 556.17L770.88 715.17L633.18 794.67L495.48 715.17L495.48 556.17zM1183.99 -0.33L1321.69 79.17L1321.69 238.17L1183.99 317.67L1046.28 238.17L1046.28 79.17zM1321.69 238.17L1459.39 317.67L1459.39 476.67L1321.69 556.17L1183.99 476.67L1183.99 317.67zM1597.09 238.17L1734.79 317.67L1734.79 476.67L1597.09 556.17L1459.39 476.67L1459.39 317.67z" stroke="rgba(53, 50, 153, 1)" stroke-width="2"></path><path d="M66.47 476.67 a15.9 15.9 0 1 0 31.8 0 a15.9 15.9 0 1 0 -31.8 0zM204.17 556.17 a15.9 15.9 0 1 0 31.8 0 a15.9 15.9 0 1 0 -31.8 0zM204.17 715.17 a15.9 15.9 0 1 0 31.8 0 a15.9 15.9 0 1 0 -31.8 0zM66.47 794.67 a15.9 15.9 0 1 0 31.8 0 a15.9 15.9 0 1 0 -31.8 0zM-71.23 715.17 a15.9 15.9 0 1 0 31.8 0 a15.9 15.9 0 1 0 -31.8 0zM-71.23 556.17 a15.9 15.9 0 1 0 31.8 0 a15.9 15.9 0 1 0 -31.8 0zM617.28 476.67 a15.9 15.9 0 1 0 31.8 0 a15.9 15.9 0 1 0 -31.8 0zM754.98 556.17 a15.9 15.9 0 1 0 31.8 0 a15.9 15.9 0 1 0 -31.8 0zM754.98 715.17 a15.9 15.9 0 1 0 31.8 0 a15.9 15.9 0 1 0 -31.8 0zM617.28 794.67 a15.9 15.9 0 1 0 31.8 0 a15.9 15.9 0 1 0 -31.8 0zM479.58 715.17 a15.9 15.9 0 1 0 31.8 0 a15.9 15.9 0 1 0 -31.8 0zM479.58 556.17 a15.9 15.9 0 1 0 31.8 0 a15.9 15.9 0 1 0 -31.8 0zM1168.09 -0.33 a15.9 15.9 0 1 0 31.8 0 a15.9 15.9 0 1 0 -31.8 0zM1305.79 79.17 a15.9 15.9 0 1 0 31.8 0 a15.9 15.9 0 1 0 -31.8 0zM1305.79 238.17 a15.9 15.9 0 1 0 31.8 0 a15.9 15.9 0 1 0 -31.8 0zM1168.09 317.67 a15.9 15.9 0 1 0 31.8 0 a15.9 15.9 0 1 0 -31.8 0zM1030.38 238.17 a15.9 15.9 0 1 0 31.8 0 a15.9 15.9 0 1 0 -31.8 0zM1030.38 79.17 a15.9 15.9 0 1 0 31.8 0 a15.9 15.9 0 1 0 -31.8 0zM1443.49 317.67 a15.9 15.9 0 1 0 31.8 0 a15.9 15.9 0 1 0 -31.8 0zM1443.49 476.67 a15.9 15.9 0 1 0 31.8 0 a15.9 15.9 0 1 0 -31.8 0zM1305.79 556.17 a15.9 15.9 0 1 0 31.8 0 a15.9 15.9 0 1 0 -31.8 0zM1168.09 476.67 a15.9 15.9 0 1 0 31.8 0 a15.9 15.9 0 1 0 -31.8 0zM1581.19 238.17 a15.9 15.9 0 1 0 31.8 0 a15.9 15.9 0 1 0 -31.8 0zM1718.89 317.67 a15.9 15.9 0 1 0 31.8 0 a15.9 15.9 0 1 0 -31.8 0zM1718.89 476.67 a15.9 15.9 0 1 0 31.8 0 a15.9 15.9 0 1 0 -31.8 0zM1581.19 556.17 a15.9 15.9 0 1 0 31.8 0 a15.9 15.9 0 1 0 -31.8 0z" fill="rgba(53, 50, 153, 1)"></path><path d="M591.57 384.78L710.21 453.28L710.21 590.28L591.57 658.78L472.92 590.28L472.92 453.28zM1184.81 179.28L1303.46 247.78L1303.46 384.78L1184.81 453.28L1066.16 384.78L1066.16 247.78zM1303.46 384.78L1422.11 453.28L1422.11 590.28L1303.46 658.78L1184.81 590.28L1184.81 453.28z" stroke="rgba(6, 80, 156, 0.93)" stroke-width="2"></path></g><defs><mask id="SvgjsMask1489"><rect width="1440" height="560" fill="#ffffff"></rect></mask></defs></svg>