<svg xmlns="http://www.w3.org/2000/svg" version="1.1" xmlns:xlink="http://www.w3.org/1999/xlink" xmlns:svgjs="http://svgjs.dev/svgjs" width="1440" height="560" preserveAspectRatio="none" viewBox="0 0 1440 560"><g mask="url(&quot;#SvgjsMask1498&quot;)" fill="none"><rect width="1440" height="560" x="0" y="0" fill="rgba(255, 255, 255, 1)"></rect><path d="M108.51 463.06L246.21 542.56L246.21 701.56L108.51 781.06L-29.19 701.56L-29.19 542.56zM1072.42 224.56L1210.13 304.06L1210.13 463.06L1072.42 542.56L934.72 463.06L934.72 304.06z" stroke="rgba(53, 50, 153, 1)" stroke-width="2"></path><path d="M92.61 463.06 a15.9 15.9 0 1 0 31.8 0 a15.9 15.9 0 1 0 -31.8 0zM230.31 542.56 a15.9 15.9 0 1 0 31.8 0 a15.9 15.9 0 1 0 -31.8 0zM230.31 701.56 a15.9 15.9 0 1 0 31.8 0 a15.9 15.9 0 1 0 -31.8 0zM92.61 781.06 a15.9 15.9 0 1 0 31.8 0 a15.9 15.9 0 1 0 -31.8 0zM-45.09 701.56 a15.9 15.9 0 1 0 31.8 0 a15.9 15.9 0 1 0 -31.8 0zM-45.09 542.56 a15.9 15.9 0 1 0 31.8 0 a15.9 15.9 0 1 0 -31.8 0zM1056.52 224.56 a15.9 15.9 0 1 0 31.8 0 a15.9 15.9 0 1 0 -31.8 0zM1194.23 304.06 a15.9 15.9 0 1 0 31.8 0 a15.9 15.9 0 1 0 -31.8 0zM1194.23 463.06 a15.9 15.9 0 1 0 31.8 0 a15.9 15.9 0 1 0 -31.8 0zM1056.52 542.56 a15.9 15.9 0 1 0 31.8 0 a15.9 15.9 0 1 0 -31.8 0zM918.82 463.06 a15.9 15.9 0 1 0 31.8 0 a15.9 15.9 0 1 0 -31.8 0zM918.82 304.06 a15.9 15.9 0 1 0 31.8 0 a15.9 15.9 0 1 0 -31.8 0z" fill="rgba(53, 50, 153, 1)"></path><path d="M151.28 607.84L273.4 678.34L273.4 819.34L151.28 889.84L29.17 819.34L29.17 678.34zM273.4 -26.66L395.51 43.84L395.51 184.84L273.4 255.34L151.28 184.84L151.28 43.84zM395.51 184.84L517.62 255.34L517.62 396.34L395.51 466.84L273.4 396.34L273.4 255.34zM517.62 -26.66L639.74 43.84L639.74 184.84L517.62 255.34L395.51 184.84L395.51 43.84zM883.96 184.84L1006.07 255.34L1006.07 396.34L883.96 466.84L761.85 396.34L761.85 255.34zM883.96 607.84L1006.07 678.34L1006.07 819.34L883.96 889.84L761.85 819.34L761.85 678.34zM1006.07 -26.66L1128.19 43.84L1128.19 184.84L1006.07 255.34L883.96 184.84L883.96 43.84zM1128.19 184.84L1250.3 255.34L1250.3 396.34L1128.19 466.84L1006.07 396.34L1006.07 255.34zM1372.41 184.84L1494.53 255.34L1494.53 396.34L1372.41 466.84L1250.3 396.34L1250.3 255.34zM1372.41 607.84L1494.53 678.34L1494.53 819.34L1372.41 889.84L1250.3 819.34L1250.3 678.34z" stroke="rgba(6, 80, 156, 0.93)" stroke-width="2"></path></g><defs><mask id="SvgjsMask1498"><rect width="1440" height="560" fill="#ffffff"></rect></mask></defs></svg>