<svg xmlns="http://www.w3.org/2000/svg" version="1.1" xmlns:xlink="http://www.w3.org/1999/xlink" xmlns:svgjs="http://svgjs.dev/svgjs" width="1440" height="560" preserveAspectRatio="none" viewBox="0 0 1440 560"><g mask="url(&quot;#SvgjsMask1530&quot;)" fill="none"><rect width="1440" height="560" x="0" y="0" fill="rgba(255, 255, 255, 1)"></rect><path d="M1516.72 357.45L1654.42 436.95L1654.42 595.95L1516.72 675.45L1379.02 595.95L1379.02 436.95z" stroke="rgba(53, 50, 153, 1)" stroke-width="2"></path><path d="M1500.82 357.45 a15.9 15.9 0 1 0 31.8 0 a15.9 15.9 0 1 0 -31.8 0zM1638.52 436.95 a15.9 15.9 0 1 0 31.8 0 a15.9 15.9 0 1 0 -31.8 0zM1638.52 595.95 a15.9 15.9 0 1 0 31.8 0 a15.9 15.9 0 1 0 -31.8 0zM1500.82 675.45 a15.9 15.9 0 1 0 31.8 0 a15.9 15.9 0 1 0 -31.8 0zM1363.12 595.95 a15.9 15.9 0 1 0 31.8 0 a15.9 15.9 0 1 0 -31.8 0zM1363.12 436.95 a15.9 15.9 0 1 0 31.8 0 a15.9 15.9 0 1 0 -31.8 0z" fill="rgba(53, 50, 153, 1)"></path><path d="M78.27 560.35L144.95 598.85L144.95 675.85L78.27 714.35L11.58 675.85L11.58 598.85zM144.95 213.85L211.64 252.35L211.64 329.35L144.95 367.85L78.27 329.35L78.27 252.35zM278.32 444.85L345.01 483.35L345.01 560.35L278.32 598.85L211.64 560.35L211.64 483.35zM611.75 329.35L678.44 367.85L678.44 444.85L611.75 483.35L545.07 444.85L545.07 367.85zM545.07 444.85L611.75 483.35L611.75 560.35L545.07 598.85L478.38 560.35L478.38 483.35zM745.12 98.35L811.81 136.85L811.81 213.85L745.12 252.35L678.44 213.85L678.44 136.85zM678.44 213.85L745.12 252.35L745.12 329.35L678.44 367.85L611.75 329.35L611.75 252.35zM745.12 329.35L811.81 367.85L811.81 444.85L745.12 483.35L678.44 444.85L678.44 367.85zM1011.87 329.35L1078.55 367.85L1078.55 444.85L1011.87 483.35L945.18 444.85L945.18 367.85zM1145.24 98.35L1211.93 136.85L1211.93 213.85L1145.24 252.35L1078.55 213.85L1078.55 136.85zM1345.3 -17.15L1411.98 21.35L1411.98 98.35L1345.3 136.85L1278.61 98.35L1278.61 21.35z" stroke="rgba(6, 80, 156, 0.93)" stroke-width="2"></path></g><defs><mask id="SvgjsMask1530"><rect width="1440" height="560" fill="#ffffff"></rect></mask></defs></svg>