<svg xmlns="http://www.w3.org/2000/svg" version="1.1" xmlns:xlink="http://www.w3.org/1999/xlink" xmlns:svgjs="http://svgjs.dev/svgjs" width="1440" height="560" preserveAspectRatio="none" viewBox="0 0 1440 560"><g mask="url(&quot;#SvgjsMask1694&quot;)" fill="none"><rect width="1440" height="560" x="0" y="0" fill="rgba(255, 255, 255, 1)"></rect><path d="M23.99 586.97L197.2 686.97L197.2 886.97L23.99 986.97L-149.22 886.97L-149.22 686.97zM370.41 586.97L543.62 686.97L543.62 886.97L370.41 986.97L197.2 886.97L197.2 686.97zM716.83 586.97L890.04 686.97L890.04 886.97L716.83 986.97L543.62 886.97L543.62 686.97zM1236.46 286.97L1409.67 386.97L1409.67 586.97L1236.46 686.97L1063.25 586.97L1063.25 386.97zM1409.67 -13.03L1582.88 86.97L1582.88 286.97L1409.67 386.97L1236.46 286.97L1236.46 86.97z" stroke="rgba(53, 50, 153, 1)" stroke-width="2"></path><path d="M3.99 586.97 a20 20 0 1 0 40 0 a20 20 0 1 0 -40 0zM177.2 686.97 a20 20 0 1 0 40 0 a20 20 0 1 0 -40 0zM177.2 886.97 a20 20 0 1 0 40 0 a20 20 0 1 0 -40 0zM3.99 986.97 a20 20 0 1 0 40 0 a20 20 0 1 0 -40 0zM-169.22 886.97 a20 20 0 1 0 40 0 a20 20 0 1 0 -40 0zM-169.22 686.97 a20 20 0 1 0 40 0 a20 20 0 1 0 -40 0zM350.41 586.97 a20 20 0 1 0 40 0 a20 20 0 1 0 -40 0zM523.62 686.97 a20 20 0 1 0 40 0 a20 20 0 1 0 -40 0zM523.62 886.97 a20 20 0 1 0 40 0 a20 20 0 1 0 -40 0zM350.41 986.97 a20 20 0 1 0 40 0 a20 20 0 1 0 -40 0zM696.83 586.97 a20 20 0 1 0 40 0 a20 20 0 1 0 -40 0zM870.04 686.97 a20 20 0 1 0 40 0 a20 20 0 1 0 -40 0zM870.04 886.97 a20 20 0 1 0 40 0 a20 20 0 1 0 -40 0zM696.83 986.97 a20 20 0 1 0 40 0 a20 20 0 1 0 -40 0zM1216.46 286.97 a20 20 0 1 0 40 0 a20 20 0 1 0 -40 0zM1389.67 386.97 a20 20 0 1 0 40 0 a20 20 0 1 0 -40 0zM1389.67 586.97 a20 20 0 1 0 40 0 a20 20 0 1 0 -40 0zM1216.46 686.97 a20 20 0 1 0 40 0 a20 20 0 1 0 -40 0zM1043.25 586.97 a20 20 0 1 0 40 0 a20 20 0 1 0 -40 0zM1043.25 386.97 a20 20 0 1 0 40 0 a20 20 0 1 0 -40 0zM1389.67 -13.03 a20 20 0 1 0 40 0 a20 20 0 1 0 -40 0zM1562.88 86.97 a20 20 0 1 0 40 0 a20 20 0 1 0 -40 0zM1562.88 286.97 a20 20 0 1 0 40 0 a20 20 0 1 0 -40 0zM1216.46 86.97 a20 20 0 1 0 40 0 a20 20 0 1 0 -40 0z" fill="rgba(53, 50, 153, 1)"></path><path d="M1060.16 477.29L1231.64 576.29L1231.64 774.29L1060.16 873.29L888.68 774.29L888.68 576.29zM1403.11 -116.71L1574.59 -17.71L1574.59 180.29L1403.11 279.29L1231.64 180.29L1231.64 -17.71z" stroke="rgba(6, 80, 156, 0.93)" stroke-width="2"></path></g><defs><mask id="SvgjsMask1694"><rect width="1440" height="560" fill="#ffffff"></rect></mask></defs></svg>