<svg xmlns="http://www.w3.org/2000/svg" version="1.1" xmlns:xlink="http://www.w3.org/1999/xlink" xmlns:svgjs="http://svgjs.dev/svgjs" width="1440" height="560" preserveAspectRatio="none" viewBox="0 0 1440 560"><g mask="url(&quot;#SvgjsMask1695&quot;)" fill="none"><rect width="1440" height="560" x="0" y="0" fill="rgba(255, 255, 255, 1)"></rect><path d="M355.14 413.77L528.35 513.77L528.35 713.77L355.14 813.77L181.93 713.77L181.93 513.77zM1221.19 113.77L1394.4 213.77L1394.4 413.77L1221.19 513.77L1047.98 413.77L1047.98 213.77z" stroke="rgba(53, 50, 153, 1)" stroke-width="2"></path><path d="M335.14 413.77 a20 20 0 1 0 40 0 a20 20 0 1 0 -40 0zM508.35 513.77 a20 20 0 1 0 40 0 a20 20 0 1 0 -40 0zM508.35 713.77 a20 20 0 1 0 40 0 a20 20 0 1 0 -40 0zM335.14 813.77 a20 20 0 1 0 40 0 a20 20 0 1 0 -40 0zM161.93 713.77 a20 20 0 1 0 40 0 a20 20 0 1 0 -40 0zM161.93 513.77 a20 20 0 1 0 40 0 a20 20 0 1 0 -40 0zM1201.19 113.77 a20 20 0 1 0 40 0 a20 20 0 1 0 -40 0zM1374.4 213.77 a20 20 0 1 0 40 0 a20 20 0 1 0 -40 0zM1374.4 413.77 a20 20 0 1 0 40 0 a20 20 0 1 0 -40 0zM1201.19 513.77 a20 20 0 1 0 40 0 a20 20 0 1 0 -40 0zM1027.98 413.77 a20 20 0 1 0 40 0 a20 20 0 1 0 -40 0zM1027.98 213.77 a20 20 0 1 0 40 0 a20 20 0 1 0 -40 0z" fill="rgba(53, 50, 153, 1)"></path><path d="M22.59 -73.79L190.6 23.21L190.6 217.21L22.59 314.21L-145.42 217.21L-145.42 23.21zM22.59 508.21L190.6 605.21L190.6 799.21L22.59 896.21L-145.42 799.21L-145.42 605.21zM358.62 508.21L526.63 605.21L526.63 799.21L358.62 896.21L190.6 799.21L190.6 605.21zM694.64 508.21L862.66 605.21L862.66 799.21L694.64 896.21L526.63 799.21L526.63 605.21zM1366.7 -73.79L1534.71 23.21L1534.71 217.21L1366.7 314.21L1198.69 217.21L1198.69 23.21z" stroke="rgba(6, 80, 156, 0.93)" stroke-width="2"></path></g><defs><mask id="SvgjsMask1695"><rect width="1440" height="560" fill="#ffffff"></rect></mask></defs></svg>