<svg xmlns="http://www.w3.org/2000/svg" version="1.1" xmlns:xlink="http://www.w3.org/1999/xlink" xmlns:svgjs="http://svgjs.dev/svgjs" width="1440" height="560" preserveAspectRatio="none" viewBox="0 0 1440 560"><g mask="url(&quot;#SvgjsMask1040&quot;)" fill="none"><rect width="1440" height="560" x="0" y="0" fill="rgba(255, 255, 255, 1)"></rect><path d="M262.36 100.01L385.34 171.01L385.34 313.01L262.36 384.01L139.38 313.01L139.38 171.01zM631.3 -112.99L754.28 -41.99L754.28 100.01L631.3 171.01L508.32 100.01L508.32 -41.99zM754.28 100.01L877.25 171.01L877.25 313.01L754.28 384.01L631.3 313.01L631.3 171.01zM877.25 -112.99L1000.23 -41.99L1000.23 100.01L877.25 171.01L754.28 100.01L754.28 -41.99zM1246.19 526.01L1369.17 597.01L1369.17 739.01L1246.19 810.01L1123.21 739.01L1123.21 597.01zM1369.17 -112.99L1492.15 -41.99L1492.15 100.01L1369.17 171.01L1246.19 100.01L1246.19 -41.99zM1492.15 526.01L1615.13 597.01L1615.13 739.01L1492.15 810.01L1369.17 739.01L1369.17 597.01z" stroke="rgba(53, 50, 153, 1)" stroke-width="2"></path><path d="M248.16 100.01 a14.2 14.2 0 1 0 28.4 0 a14.2 14.2 0 1 0 -28.4 0zM371.14 171.01 a14.2 14.2 0 1 0 28.4 0 a14.2 14.2 0 1 0 -28.4 0zM371.14 313.01 a14.2 14.2 0 1 0 28.4 0 a14.2 14.2 0 1 0 -28.4 0zM248.16 384.01 a14.2 14.2 0 1 0 28.4 0 a14.2 14.2 0 1 0 -28.4 0zM125.18 313.01 a14.2 14.2 0 1 0 28.4 0 a14.2 14.2 0 1 0 -28.4 0zM125.18 171.01 a14.2 14.2 0 1 0 28.4 0 a14.2 14.2 0 1 0 -28.4 0zM617.1 -112.99 a14.2 14.2 0 1 0 28.4 0 a14.2 14.2 0 1 0 -28.4 0zM740.08 -41.99 a14.2 14.2 0 1 0 28.4 0 a14.2 14.2 0 1 0 -28.4 0zM740.08 100.01 a14.2 14.2 0 1 0 28.4 0 a14.2 14.2 0 1 0 -28.4 0zM617.1 171.01 a14.2 14.2 0 1 0 28.4 0 a14.2 14.2 0 1 0 -28.4 0zM494.12 100.01 a14.2 14.2 0 1 0 28.4 0 a14.2 14.2 0 1 0 -28.4 0zM494.12 -41.99 a14.2 14.2 0 1 0 28.4 0 a14.2 14.2 0 1 0 -28.4 0zM863.05 171.01 a14.2 14.2 0 1 0 28.4 0 a14.2 14.2 0 1 0 -28.4 0zM863.05 313.01 a14.2 14.2 0 1 0 28.4 0 a14.2 14.2 0 1 0 -28.4 0zM740.08 384.01 a14.2 14.2 0 1 0 28.4 0 a14.2 14.2 0 1 0 -28.4 0zM617.1 313.01 a14.2 14.2 0 1 0 28.4 0 a14.2 14.2 0 1 0 -28.4 0zM863.05 -112.99 a14.2 14.2 0 1 0 28.4 0 a14.2 14.2 0 1 0 -28.4 0zM986.03 -41.99 a14.2 14.2 0 1 0 28.4 0 a14.2 14.2 0 1 0 -28.4 0zM986.03 100.01 a14.2 14.2 0 1 0 28.4 0 a14.2 14.2 0 1 0 -28.4 0zM1231.99 526.01 a14.2 14.2 0 1 0 28.4 0 a14.2 14.2 0 1 0 -28.4 0zM1354.97 597.01 a14.2 14.2 0 1 0 28.4 0 a14.2 14.2 0 1 0 -28.4 0zM1354.97 739.01 a14.2 14.2 0 1 0 28.4 0 a14.2 14.2 0 1 0 -28.4 0zM1231.99 810.01 a14.2 14.2 0 1 0 28.4 0 a14.2 14.2 0 1 0 -28.4 0zM1109.01 739.01 a14.2 14.2 0 1 0 28.4 0 a14.2 14.2 0 1 0 -28.4 0zM1109.01 597.01 a14.2 14.2 0 1 0 28.4 0 a14.2 14.2 0 1 0 -28.4 0zM1354.97 -112.99 a14.2 14.2 0 1 0 28.4 0 a14.2 14.2 0 1 0 -28.4 0zM1477.95 -41.99 a14.2 14.2 0 1 0 28.4 0 a14.2 14.2 0 1 0 -28.4 0zM1477.95 100.01 a14.2 14.2 0 1 0 28.4 0 a14.2 14.2 0 1 0 -28.4 0zM1354.97 171.01 a14.2 14.2 0 1 0 28.4 0 a14.2 14.2 0 1 0 -28.4 0zM1231.99 100.01 a14.2 14.2 0 1 0 28.4 0 a14.2 14.2 0 1 0 -28.4 0zM1231.99 -41.99 a14.2 14.2 0 1 0 28.4 0 a14.2 14.2 0 1 0 -28.4 0zM1477.95 526.01 a14.2 14.2 0 1 0 28.4 0 a14.2 14.2 0 1 0 -28.4 0zM1600.93 597.01 a14.2 14.2 0 1 0 28.4 0 a14.2 14.2 0 1 0 -28.4 0zM1600.93 739.01 a14.2 14.2 0 1 0 28.4 0 a14.2 14.2 0 1 0 -28.4 0zM1477.95 810.01 a14.2 14.2 0 1 0 28.4 0 a14.2 14.2 0 1 0 -28.4 0z" fill="rgba(53, 50, 153, 1)"></path><path d="M29.35 308.21L135.87 369.71L135.87 492.71L29.35 554.21L-77.17 492.71L-77.17 369.71zM881.54 -60.79L988.07 0.71L988.07 123.71L881.54 185.21L775.02 123.71L775.02 0.71zM988.07 492.71L1094.59 554.21L1094.59 677.21L988.07 738.71L881.54 677.21L881.54 554.21zM1307.64 -60.79L1414.16 0.71L1414.16 123.71L1307.64 185.21L1201.12 123.71L1201.12 0.71z" stroke="rgba(6, 80, 156, 0.93)" stroke-width="2"></path></g><defs><mask id="SvgjsMask1040"><rect width="1440" height="560" fill="#ffffff"></rect></mask></defs></svg>